<svg xmlns="http://www.w3.org/2000/svg" viewBox="0 0 400 62.71"><g data-name="Group 12862"><path data-name="Path 29815" d="M40.38 4.21c0 .13 0 .26-.02.38a4.209 4.209 0 01-4.19 3.84H19.34c-4.21 0-6.52 2.38-6.94 7.23l-.62 7.14c-.2 2.31 1.51 4.36 3.82 4.56.12.01.25.02.37.02h15.3c2.32 0 4.21 1.89 4.21 4.21 0 .12 0 .24-.02.36a4.209 4.209 0 01-4.19 3.84H14.49c-2.18 0-4 1.67-4.19 3.84L8.74 57.48a4.209 4.209 0 01-4.19 3.84h-.33c-2.33 0-4.22-1.88-4.22-4.2 0-.12 0-.25.02-.37l3.58-41C4.59 4.5 11.2 0 20.08 0h16.09c2.33 0 4.21 1.88 4.21 4.21m114.64 22.25a15.443 15.443 0 00-11.3-4.57c-4.46 0-8.76 1.63-12.11 4.57a19.729 19.729 0 00-6.06 13.81l-1.44 16.47a4.207 4.207 0 003.83 4.56c.12.01.24.02.36.02h.34c2.18 0 4-1.67 4.19-3.84l1.5-17.2c.57-6.59 3.89-9.97 8.65-9.97s7.56 3.48 7 9.97l-1.44 16.47a4.207 4.207 0 003.83 4.56c.12 0 .24.02.36.02h.34c2.18 0 4-1.67 4.19-3.84l1.5-17.2c.53-6.13-.7-10.8-3.73-13.81m-53.98-.29c0 .13 0 .25-.02.38l-1.22 13.82-.24 2.73c-.3 3.85-1.62 7.55-3.81 10.74-.59.84-1.24 1.65-1.94 2.4a19.857 19.857 0 01-15.08 6.34 17.72 17.72 0 01-13.91-5.72c-3.6-4.3-5.44-9.8-5.16-15.4 0-.22 0-.5.01-.82h-.01l.03-.28v-.26l.18-2.01 1.07-12.23c.22-2.42 2.35-4.2 4.77-3.98 1.88.17 3.44 1.52 3.88 3.36.11.46.14.93.1 1.39L69 38.11h22l1.39-12.28c.21-2.38 2.32-4.15 4.7-3.93 2.23.2 3.94 2.06 3.95 4.3m-11.4 19.59H69.29c1 5.87 4.32 8.85 9.91 8.85 5.29 0 8.8-2.98 10.44-8.85" fill="#e60000"/><path d="M227.24.04c-.13-.01-.26-.02-.39-.02h-16.09c-8.87 0-15.5 4.48-16.47 15.75l-3.58 41a4.207 4.207 0 003.83 4.56c.12.01.24.02.36.02h.33c2.18 0 4-1.67 4.19-3.84l1.56-17.85a4.209 4.209 0 014.19-3.84h16.77a4.209 4.209 0 00.37-8.4c-.12-.01-.25-.02-.37-.02h-15.3c-2.32 0-4.21-1.89-4.21-4.21 0-.12 0-.24.02-.37l.62-7.13c.43-4.85 2.74-7.23 6.94-7.23h16.83c2.33 0 4.21-1.9 4.2-4.23 0-2.17-1.66-3.98-3.82-4.19zm62.17 41.66c.28-5.6-1.57-11.1-5.16-15.4a17.767 17.767 0 00-13.91-5.72c-5.7-.14-11.19 2.16-15.08 6.34-.7.75-1.35 1.56-1.94 2.4a21.963 21.963 0 00-3.81 10.74l-.24 2.73-1.21 13.83c-.01.13-.02.25-.02.38 0 2.39 1.95 4.33 4.34 4.32a4.33 4.33 0 004.31-3.96l1.39-12.28h22l-.69 11.46c-.04.47 0 .94.1 1.39a4.395 4.395 0 005.29 3.26c1.84-.44 3.19-2 3.36-3.88l1.07-12.23.18-2.01c0-.09 0-.18.01-.26l.02-.28h-.02c.02-.32.02-.6.02-.82zm-29.98-4.3c1.64-5.87 5.15-8.85 10.44-8.85 5.59 0 8.91 2.98 9.91 8.85h-20.35zM394.8 26.27a17.766 17.766 0 00-13.92-5.71c-5.7-.15-11.19 2.16-15.08 6.34a22.33 22.33 0 00-6 15.86 19.572 19.572 0 005.46 14.5c3.95 3.72 9.24 5.68 14.66 5.42 3.33.11 6.64-.57 9.66-1.98a15.77 15.77 0 002.88-1.9c.99-.77 1.62-1.92 1.75-3.17.02-.16.02-.32.02-.48a3.803 3.803 0 00-3.86-3.73c-1.05.01-2.06.39-2.86 1.06a11.978 11.978 0 01-7.4 2.28c-2.82.1-5.57-.89-7.68-2.76a9.183 9.183 0 01-2.96-6.92h30.39v-.12c.08-1.49.12-2.59.12-3.26a22.3 22.3 0 00-5.18-15.43zM370 37.4c1.64-5.87 5.15-8.85 10.44-8.85 5.59 0 8.91 2.98 9.91 8.85H370zm-34.78-15.03c-.15-.02-.3-.02-.45-.02h-2.1c-8.5 0-15.21 4.48-16.2 15.74l-1.62 18.53a4.328 4.328 0 003.94 4.69c.13.01.25.02.38.02a4.33 4.33 0 004.31-3.95l1.69-19.29c.43-4.85 2.83-7.32 7.23-7.32h1.63a4.686 4.686 0 004.58-4.21 3.798 3.798 0 00-3.38-4.18z"/></g></svg>