<?xml version="1.0" encoding="UTF-8"?>
<svg width="586px" height="36px" viewBox="0 0 586 36" version="1.1" xmlns="http://www.w3.org/2000/svg" xmlns:xlink="http://www.w3.org/1999/xlink">
    <title>バンダイナムコエンターテインメント</title>
    <g id="styleguide" stroke="none" stroke-width="1" fill="none" fill-rule="evenodd">
        <g id="pc_header/footer" transform="translate(-393.000000, -132.000000)" fill="#000000" fill-rule="nonzero">
            <g id="header" transform="translate(-1.000000, 21.000000)">
                <path d="M425.364,118.772 L428.244,117.548 C427.596,116.288 426.264,114.02 425.328,112.652 L422.484,113.84 C423.456,115.172 424.644,117.296 425.364,118.772 Z M421.044,120.464 L423.924,119.204 C423.24,117.872 421.98,115.604 421.08,114.272 L418.236,115.46 C419.208,116.828 420.288,118.988 421.044,120.464 Z M421.44,143.756 L426.768,142.028 C425.76,138.464 423.852,132.704 422.592,129.464 C421.224,125.972 418.74,120.428 417.264,117.656 L412.476,119.204 C413.988,121.94 416.328,127.268 417.696,131.048 C419.136,134.936 420.432,139.472 421.44,143.756 Z M399.336,143.936 C401.244,141.236 403.368,137.132 404.664,133.64 C405.924,130.292 407.22,125.324 407.724,122.804 C407.868,122.012 408.264,120.248 408.588,119.204 L403.332,118.124 C402.9,122.696 401.532,127.772 399.912,131.804 C398.688,134.972 396.564,138.86 394.296,141.812 L399.336,143.936 Z M443.092,127.016 L446.764,123.272 C444.676,121.076 439.996,117.332 437.476,115.64 L434.092,119.24 C436.72,121.076 441.22,125 443.092,127.016 Z M436,144.368 C441.076,143.504 445.72,141.488 449.356,139.292 C455.152,135.8 459.94,130.832 462.676,125.972 L459.868,120.896 C457.6,125.756 452.92,131.264 446.764,134.9 C443.272,136.988 438.592,138.824 432.976,139.616 L436,144.368 Z M495.164,117.944 L498.008,116.684 C497.36,115.424 496.028,113.156 495.092,111.788 L492.248,112.976 C493.256,114.344 494.408,116.432 495.164,117.944 Z M471.728,146.24 C477.344,144.116 481.412,141.056 484.58,137.708 C486.056,138.896 487.388,140.012 488.36,140.912 L491.816,136.844 C490.736,135.98 489.332,134.936 487.784,133.82 C490.376,130.22 492.176,126.368 493.112,123.452 C493.436,122.552 493.904,121.58 494.3,120.86 L491.672,119.24 L493.688,118.376 C493.04,117.044 491.744,114.74 490.844,113.444 L488,114.596 C488.792,115.748 489.656,117.332 490.34,118.7 C489.548,118.916 488.504,119.024 487.532,119.024 L480.188,119.024 C480.62,118.232 481.556,116.612 482.42,115.352 L477.2,113.732 C476.876,114.956 476.12,116.612 475.58,117.476 C473.744,120.608 470.396,125.54 464.096,129.428 L467.984,132.452 C471.62,129.932 474.968,126.476 477.488,123.128 L487.784,123.128 C487.244,125.36 485.696,128.456 483.86,131.084 C481.556,129.536 479.288,128.06 477.38,126.98 L474.176,130.256 C476.012,131.444 478.388,133.064 480.728,134.756 C477.776,137.78 473.78,140.696 467.552,142.604 L471.728,146.24 Z M519.444,144.584 C519.206824,143.736941 519.129093,141.709979 519.120769,140.153853 L519.12,125.324 C522.612,123.02 526.068,120.212 528.804,117.512 L524.916,113.804 C522.576,116.648 518.472,120.248 514.764,122.552 C510.768,125 505.476,127.34 499.032,128.996 L501.3,133.532 C505.728,132.236 510.3,130.292 514.008,128.348 L514.008,139.868 C514.008,141.452 513.9,143.72 513.756,144.584 L519.444,144.584 Z M541.24,145.016 C549.016,140.372 551.284,134.468 551.5,127.232 L559.6,127.232 C561.04,127.232 562.804,127.34 563.56,127.376 L563.56,122.48 C562.804,122.552 561.292,122.696 559.636,122.696 L551.536,122.696 L551.536,118.772 C551.536,117.62 551.608,115.64 551.824,114.524 L546.1,114.524 C546.424,115.64 546.568,117.512 546.568,118.736 L546.568,122.696 L537.208,122.696 C535.768,122.696 534.292,122.552 533.212,122.444 L533.212,127.412 C534.328,127.34 535.768,127.232 537.352,127.232 L546.532,127.232 C546.244,133.316 543.832,138.5 536.776,141.704 L541.24,145.016 Z M592.448,144.62 L597.308,142.46 C595.652,138.428 591.98,131.372 589.424,127.484 L584.924,129.32 C586.112,130.904 587.444,133.316 588.704,135.908 C585.068,136.34 579.956,136.916 575.564,137.348 C577.364,132.524 580.28,123.38 581.432,119.852 C581.972,118.268 582.512,116.936 582.98,115.856 L577.256,114.668 C577.112,115.892 576.896,117.008 576.392,118.844 C575.348,122.588 572.252,132.452 570.164,137.78 C569.84,137.78 569.48,137.816 569.192,137.816 C568.343429,137.841714 567.311184,137.849061 566.344536,137.85116 L565.232,137.852 L565.232,137.852 L566.06,143.108 C567.212,142.964 568.544,142.784 569.444,142.676 C573.98,142.208 584.888,141.056 590.72,140.372 C591.404,141.92 591.98,143.396 592.448,144.62 Z M628.428,143.792 C628.356,142.712 628.284,140.804 628.284,139.544 L628.284,120.896 C628.284,119.852 628.356,118.412 628.392,117.584 C627.78,117.62 626.268,117.656 625.224,117.656 L607.08,117.656 C605.856,117.656 603.984,117.584 602.652,117.44 L602.652,122.444 C603.66,122.372 605.604,122.3 607.116,122.3 L623.28,122.3 L623.28,137.204 L606.684,137.204 C605.064,137.204 603.444,137.096 602.184,136.988 L602.184,142.136 C603.372,142.028 605.424,141.92 606.828,141.92 L623.244,141.92 C623.244,142.604 623.244,143.216 623.208,143.792 L628.428,143.792 Z M676.68,142.28 L676.68,137.06 C675.744,137.204 674.592,137.348 673.296,137.348 L663.756,137.348 L663.756,122.66 L671.352,122.66 C672.396,122.66 673.656,122.732 674.736,122.804 L674.736,117.872 C673.692,117.98 672.432,118.088 671.352,118.088 L651.768,118.088 C650.76,118.088 649.284,117.98 648.348,117.872 L648.348,122.804 C649.248,122.732 650.796,122.66 651.768,122.66 L658.716,122.66 L658.716,137.348 L649.572,137.348 C648.456,137.348 647.16,137.24 646.044,137.06 L646.044,142.28 C647.232,142.136 648.492,142.1 649.572,142.1 L673.296,142.1 C674.124,142.1 675.636,142.136 676.68,142.28 Z M691.636,127.016 L695.308,123.272 C693.22,121.076 688.54,117.332 686.02,115.64 L682.636,119.24 C685.264,121.076 689.764,125 691.636,127.016 Z M684.544,144.368 C689.62,143.504 694.264,141.488 697.9,139.292 C703.696,135.8 708.484,130.832 711.22,125.972 L708.412,120.896 C706.144,125.756 701.464,131.264 695.308,134.9 C691.816,136.988 687.136,138.824 681.52,139.616 L684.544,144.368 Z M721.1,145.376 C726.716,143.252 730.82,140.192 733.988,136.844 C735.464,138.032 736.796,139.148 737.768,140.048 L741.188,135.98 C740.144,135.116 738.74,134.072 737.192,132.956 C739.748,129.356 741.548,125.504 742.52,122.588 C742.844,121.688 743.312,120.716 743.708,120.032 L740.036,117.764 C739.244,118.016 738.02,118.16 736.904,118.16 L729.596,118.16 C730.028,117.368 730.928,115.748 731.828,114.488 L726.608,112.868 C726.284,114.092 725.528,115.748 724.952,116.612 C723.152,119.744 719.804,124.676 713.504,128.6 L717.392,131.588 C721.028,129.068 724.376,125.612 726.896,122.264 L737.192,122.264 C736.652,124.496 735.104,127.628 733.232,130.22 C730.964,128.708 728.696,127.232 726.788,126.152 L723.584,129.428 C725.42,130.58 727.796,132.2 730.136,133.928 C727.148,136.916 723.152,139.832 716.924,141.74 L721.1,145.376 Z M777.996,131.984 L777.996,126.332 C777.06,126.404 775.476,126.548 773.784,126.548 L754.452,126.548 C752.58,126.548 749.952,126.44 748.656,126.332 L748.656,131.984 C749.90475,131.88275 752.102719,131.813141 754.063383,131.804835 L773.784,131.804 C775.296,131.804 777.132,131.948 777.996,131.984 Z M808.792,120.032 L808.792,115.388 C807.568,115.568 806.128,115.64 804.904,115.64 L790.432,115.64 C789.244,115.64 787.768,115.568 786.58,115.388 L786.58,120.032 C787.696,119.96 789.208,119.888 790.468,119.888 L804.904,119.888 C806.164,119.888 807.568,119.96 808.792,120.032 Z M791.224,145.34 C794.428,143.72 797.2,140.912 798.46,138.428 C799.756,135.908 800.548,132.884 800.764,129.176 L809.44,129.176 C810.448,129.176 811.816,129.212 812.716,129.284 L812.716,124.604 C811.78,124.748 810.196,124.82 809.44,124.82 L785.86,124.82 C784.744,124.82 783.484,124.712 782.404,124.604 L782.404,129.32 C783.412,129.248 784.78,129.176 785.86,129.176 L795.76,129.176 C795.616,132.2 795.004,134.9 793.528,137.132 C792.088,139.22 789.568,141.308 787.012,142.28 L791.224,145.34 Z M835.988,144.584 C835.750824,143.736941 835.673093,141.709979 835.664769,140.153853 L835.664,125.324 C839.156,123.02 842.612,120.212 845.348,117.512 L841.46,113.804 C839.12,116.648 835.016,120.248 831.308,122.552 C827.312,125 822.02,127.34 815.576,128.996 L817.844,133.532 C822.272,132.236 826.844,130.292 830.552,128.348 L830.552,139.868 C830.552,141.452 830.444,143.72 830.3,144.584 L835.988,144.584 Z M861.636,127.016 L865.308,123.272 C863.22,121.076 858.54,117.332 856.02,115.64 L852.636,119.24 C855.264,121.076 859.764,125 861.636,127.016 Z M854.544,144.368 C859.62,143.504 864.264,141.488 867.9,139.292 C873.696,135.8 878.484,130.832 881.22,125.972 L878.412,120.896 C876.144,125.756 871.464,131.264 865.308,134.9 C861.816,136.988 857.136,138.824 851.52,139.616 L854.544,144.368 Z M887.824,144.8 C893.908,141.488 898.048,137.492 901.216,133.676 C904.096,136.16 906.688,138.68 909.208,141.632 L912.916,137.528 C910.468,134.936 907.444,132.164 904.276,129.572 C906.4,126.26 908.02,122.624 909.1,119.78 C909.46,118.952 910.144,117.368 910.612,116.54 L905.248,114.668 C905.104,115.604 904.708,117.044 904.384,117.98 C903.448,120.824 902.224,123.668 900.388,126.548 C897.472,124.388 893.692,121.796 890.812,120.032 L887.752,123.704 C891.424,125.936 894.88,128.492 897.472,130.544 C893.908,134.828 889.66,138.32 883.792,141.164 L887.824,144.8 Z M928.556,127.016 L932.228,123.272 C930.14,121.076 925.46,117.332 922.94,115.64 L919.556,119.24 C922.184,121.076 926.684,125 928.556,127.016 Z M921.464,144.368 C926.54,143.504 931.184,141.488 934.82,139.292 C940.616,135.8 945.404,130.832 948.14,125.972 L945.332,120.896 C943.064,125.756 938.384,131.264 932.228,134.9 C928.736,136.988 924.056,138.824 918.44,139.616 L921.464,144.368 Z M964.824,144.584 C964.68,143.108 964.5,140.588 964.5,139.544 L964.5,129.356 C968.388,130.688 973.788,132.776 977.496,134.72 L979.548,129.752 C976.236,128.132 969.324,125.576 964.5,124.172 L964.5,118.844 C964.5,117.368 964.68,115.784 964.824,114.524 L959.208,114.524 C959.46,115.784 959.568,117.584 959.568,118.844 L959.568,139.544 C959.568,140.984 959.424,143.144 959.208,144.584 L964.824,144.584 Z" id="バンダイナムコエンターテインメント"></path>
            </g>
        </g>
    </g>
</svg>