<svg width="120" height="120" xmlns="http://www.w3.org/2000/svg"><g fill="none" fill-rule="evenodd"><path d="M0 0h120v120H0z"/><path d="M67.045 27.246H13.194c-4.609 0-8.4 3.69-8.534 8.287l-.003.233v35.398c0 4.61 3.689 8.4 8.286 8.534l.233.003h19.555v6.486h-9.44c-1.694 0-2.545 2.92-2.545 4.843 0 1.839.87 4.597 2.545 4.597H57.03c1.676 0 2.545-2.758 2.545-4.597l-.002-.163c-.046-1.92-.896-4.68-2.543-4.68h-9.441v-6.403h19.538c4.634-.097 8.373-3.925 8.373-8.538V35.784c.096-4.678-3.734-8.538-8.455-8.538zM13.194 29.71h53.85c3.284 0 5.955 2.627 5.994 5.855v35.682c0 3.274-2.67 6.007-5.937 6.075H45.127V88.65h11.428c.046.104.092.223.137.356l.09.286c.028.1.056.202.082.307l.075.316.033.156.058.3.044.27.028.226c.007.065.01.12.01.164 0 .11-.024.303-.065.532l-.058.29-.071.31a7.954 7.954 0 01-.129.458l-.05.152a4.733 4.733 0 01-.1.267l-.056.125H23.737l-.006-.012a4.672 4.672 0 01-.2-.532 7.954 7.954 0 01-.128-.459l-.071-.308-.058-.29a3.52 3.52 0 01-.065-.533c0-.043.003-.099.01-.164l.028-.225.044-.27.057-.3.07-.315a9.41 9.41 0 01.122-.465l.044-.148c.06-.19.121-.357.18-.494h11.43V77.24h-22l-.197-.003C9.748 77.14 7.12 74.44 7.12 71.164v-35.38l.003-.197c.095-3.25 2.796-5.878 6.072-5.878z" fill="#E60000" fill-rule="nonzero"/><path d="M63.433 33.239H16.806c-2.823 0-5.254 2.195-5.254 4.925v30.127c0 2.838 1.55 4.925 4.351 4.925h47.776c2.88 0 5.254-2.173 5.254-4.925l-.246-30.137c0-2.683-2.401-4.915-5.254-4.915zM16.806 35.7h46.627c1.531 0 2.79 1.171 2.79 2.463L66.47 68.3c0 1.331-1.225 2.453-2.79 2.453H15.902c-1.255 0-1.888-.853-1.888-2.463V38.164c0-1.311 1.275-2.463 2.791-2.463zm90.627 5.666H86.09a6.157 6.157 0 00-6.157 6.156v41.045c0 3.4 2.756 6.157 6.157 6.157h21.343c3.4 0 6.157-2.757 6.157-6.157V47.522c0-3.4-2.757-6.156-6.157-6.156zM86.09 43.828h21.343a3.694 3.694 0 013.694 3.694v41.045a3.694 3.694 0 01-3.694 3.694H86.09a3.694 3.694 0 01-3.694-3.694V47.522a3.694 3.694 0 013.694-3.694z" fill="#E60000" fill-rule="nonzero"/><path d="M104.15 47.112H89.372c-2.04 0-3.694 1.826-3.694 4.079v33.536c0 2.252 1.654 4.078 3.694 4.078h14.776c2.04 0 3.694-1.826 3.694-4.078V51.19c0-2.253-1.654-4.08-3.694-4.08zm-14.777 2.661h14.776c.68 0 1.232.61 1.232 1.364V84.78c0 .754-.552 1.364-1.232 1.364H89.373c-.68 0-1.231-.61-1.231-1.364V51.137c0-.753.551-1.364 1.231-1.364z" fill="#E60000" fill-rule="nonzero"/></g></svg>