<svg width="120" height="120" xmlns="http://www.w3.org/2000/svg"><g fill="none" fill-rule="evenodd"><path d="M0 0h120v120H0z"/><path d="M36.723 26.752H27.73c-8.127 0-14.44 4.622-16.13 12.595l-.074.37a137.972 137.972 0 00-.66 3.419l-.25 1.43-.245 1.468-.238 1.507c-.04.255-.078.511-.117.769l-.228 1.566-.224 1.608-.11.82-.215 1.671-.21 1.715-.206 1.76-.202 1.804-.1.92-.195 1.875-.213 2.132-.21 2.2-.21 2.293-.213 2.412-.492 5.864-.484 5.927c-.474 6.208 5.513 10.741 13.78 12.267l.705.122a34 34 0 002.913.34l.374.026C34.688 96.292 43 92.238 43 84.5l.001-.384.01-.74.022-.701.033-.665c.226-3.877 1.052-5.81 2.635-6.793l.1-.061.204-.116.211-.11a5.96 5.96 0 01.109-.051l.224-.1.115-.047.24-.09.126-.043.26-.08.275-.076.291-.07.31-.065.328-.06.35-.054.566-.073.621-.064.447-.038.475-.033.769-.044 1.136-.047 1.275-.036 1.425-.027 4.795-.046 3.209-.007 2.15.005 1.558.017 1.057.021.969.03.887.04.55.032.518.036.488.042.46.047.434.052.41.058.197.031.378.067.358.074.341.08.325.087.312.094.3.1.29.11.141.057.278.12c.092.042.183.085.273.13 2.534 1.241 3.709 3.794 3.762 9.014L80 84.5c0 5.65 5.239 9.486 12.345 10.677l.672.104c1.579.224 3.243.32 4.955.281l.348-.01c9.716-.331 16.811-5.028 15.701-12.537l-.032-.198-.148-1.538-.34-3.242-.647-5.818-.453-3.938-.5-4.237-.447-3.685-.573-4.556-.42-3.213-.336-2.48-.259-1.85-.372-2.54-.293-1.89-.222-1.36-.213-1.218-.2-1.073-.097-.48c-1.68-8.314-7.461-12.947-15.528-12.947H83.95c-5.344 0-8.244.823-12.277 2.964l-.933.504c-3.653 1.98-5.901 2.667-10.404 2.667-4.502 0-6.751-.688-10.405-2.668l-.537-.291c-4.243-2.3-7.156-3.176-12.671-3.176zm-8.992 3h8.992c4.799 0 7.24.687 10.862 2.61l.916.495c4.06 2.2 6.776 3.03 11.835 3.03 5.06 0 7.775-.83 11.834-3.03l.54-.292c3.834-2.078 6.275-2.813 11.24-2.813h8.991c6.537 0 11.036 3.515 12.514 10.19l.121.584.193 1.012.205 1.16.272 1.651.23 1.477.18 1.195.373 2.608.261 1.892.477 3.592.5 3.928.362 2.929.307 2.545.43 3.638.649 5.658.732 6.708.23 2.29.029.323.016.123c.934 5.417-4.68 9.112-13.12 9.308C89.574 92.757 83 89.363 83 84.5c0-6.504-1.644-10.223-5.443-12.086l-.168-.08-.335-.154-.337-.144-.342-.134a12.153 12.153 0 00-.349-.124l-.357-.116-.367-.106a13.43 13.43 0 00-.38-.098l-.396-.09-.412-.082-.43-.075a19.742 19.742 0 00-.224-.034l-.463-.064-.487-.057-.513-.051-.824-.065-.588-.036-.945-.045-.676-.023-1.086-.027-1.18-.018-.842-.007-1.352-.005-4.168.007-4.54.042-1.573.027-1.413.037-.962.037-.886.045-.55.036-.521.04-.728.07-.453.053-.43.059-.406.065-.386.072-.367.078c-.06.013-.119.027-.177.042l-.342.088-.165.048-.32.1a9.462 9.462 0 00-.156.053l-.303.112-.147.06-.29.125-.281.134-.277.143-.272.153-.271.162C41.102 74.54 40 77.982 40 84.5c0 5.478-6.613 8.703-15.533 8.138-8.8-.557-15.35-4.563-14.971-9.524l.83-10.088.215-2.495.28-3.12.209-2.216.281-2.841.097-.933.195-1.832.2-1.785.204-1.74.103-.852.21-1.673.215-1.63.11-.8.223-1.567.229-1.526.234-1.487.12-.729.244-1.43c.206-1.174.42-2.31.64-3.411l.134-.656c1.291-6.743 6.392-10.55 13.262-10.55z" fill="#E60000" fill-rule="nonzero"/><path d="M74.47 47.424a6.61 6.61 0 100 13.219 6.61 6.61 0 000-13.219zm0 3a3.61 3.61 0 110 7.219 3.61 3.61 0 010-7.219zm23.21-3a6.61 6.61 0 100 13.219 6.61 6.61 0 000-13.219zm0 3a3.61 3.61 0 110 7.219 3.61 3.61 0 010-7.219zm-11.31 7.647a6.61 6.61 0 100 13.219 6.61 6.61 0 000-13.219zm0 3a3.61 3.61 0 110 7.219 3.61 3.61 0 010-7.219zm0-24.294a6.61 6.61 0 100 13.219 6.61 6.61 0 000-13.219zm0 3a3.61 3.61 0 110 7.219 3.61 3.61 0 010-7.219zm-52.7-2c-2.808 0-5.057 2.138-5.197 4.93l-.007.237-.001 5.831h-5.908c-3 .164-5.248 2.613-5.087 5.52l.02.226c.269 2.552 2.364 4.623 4.979 4.776l5.881.002v5.794c0 2.913 2.292 5.205 5.205 5.205l.222-.005c2.806-.113 4.982-2.362 4.982-5.2V59.3h5.793c3-.164 5.248-2.613 5.087-5.52l-.019-.223c-.266-2.529-2.334-4.621-4.858-4.779l-5.888-.002v-5.794c0-2.912-2.291-5.205-5.204-5.205zm0 3c1.256 0 2.205.95 2.205 2.205v8.793h8.793c.966.063 1.905 1.046 1.976 2.183.068 1.224-.896 2.273-2.175 2.344l-8.71-.002v8.793c0 1.256-.949 2.205-2.204 2.205-1.256 0-2.205-.95-2.205-2.205V56.3h-8.793c-1.072-.066-2.02-1.035-2.092-2.182-.068-1.224.896-2.274 2.175-2.345l8.826.002v-8.793l.004-.163c.06-1.157.99-2.042 2.2-2.042z" fill="#E60000" fill-rule="nonzero"/></g></svg>