<svg width="120" height="120" xmlns="http://www.w3.org/2000/svg"><g fill="none"><path d="M0 0h120v120H0z"/><path d="M28.878 50.66c-5.777 0-10.465 4.69-10.465 10.469 0 5.776 4.688 10.461 10.465 10.461 5.78 0 10.465-4.684 10.465-10.461 0-5.78-4.686-10.469-10.465-10.469zm0 3.276a7.192 7.192 0 017.189 7.193 7.19 7.19 0 01-14.378 0 7.194 7.194 0 017.189-7.193zm0 19.303c-6.56 0-12.378 7.329-12.378 13.514 0 5.027 1.202 10.01 3.135 10.976 1.873.937 5.843 1.797 9.462 1.811 4.903.02 9.545-.9 11.097-2.778.673-.815 1.069-2.267 1.276-4.477l.057-.685.046-.732.02-.384.03-.802.012-.42.017-.875.008-.924v-.48c0-6.14-6.207-13.744-12.782-13.744zm0 3.276c4.603 0 9.507 6.008 9.507 10.468v.393l-.014 1.128-.017.708-.023.67-.03.633-.053.875-.065.782-.048.469-.053.424-.028.196-.058.356c-.099.556-.21.917-.328 1.058-.198.24-.682.478-1.367.693l-.434.127-.478.12-.518.113c-.357.073-.738.14-1.138.2l-.611.086-.635.075c-.108.012-.216.023-.325.033l-.662.056a29.9 29.9 0 01-2.39.086l-.363-.004c-2.788-.06-5.769-.674-7.28-1.295l-.22-.096.026.039a2.477 2.477 0 01-.227-.41c-.21-.456-.423-1.105-.61-1.882-.413-1.71-.66-3.829-.66-5.863 0-4.52 4.539-10.238 9.102-10.238zM58.36 56.12c-5.777 0-10.464 4.69-10.464 10.469 0 5.776 4.688 10.46 10.465 10.46 5.78 0 10.464-4.683 10.464-10.46 0-5.781-4.685-10.469-10.464-10.469zm0 3.276c3.97 0 7.19 3.22 7.19 7.193a7.19 7.19 0 01-14.378 0 7.194 7.194 0 017.189-7.193zm0 19.303c-6.56 0-12.378 7.329-12.378 13.514 0 5.027 1.203 10.01 3.136 10.976 1.873.937 5.843 1.796 9.462 1.811 4.903.02 9.545-.9 11.097-2.779.672-.814 1.069-2.266 1.276-4.476l.057-.686.046-.732.02-.383.03-.803.012-.419.017-.875.008-.924v-.48c0-6.14-6.207-13.744-12.783-13.744zm0 3.276c4.603 0 9.508 6.007 9.508 10.468l-.001.393-.013 1.128-.017.708-.024.67-.029.633-.053.874-.065.783-.049.468-.052.425-.028.196-.058.356c-.1.556-.211.916-.328 1.058-.198.24-.683.477-1.367.693l-.434.126-.478.12-.518.114c-.357.072-.738.14-1.138.2l-.612.086-.635.075a30.6 30.6 0 01-.325.033l-.661.056c-.78.058-1.587.09-2.39.086l-.363-.005c-2.788-.06-5.769-.673-7.28-1.294l-.22-.096.026.038a2.477 2.477 0 01-.227-.41c-.21-.455-.423-1.104-.61-1.882-.414-1.71-.66-3.828-.66-5.862 0-4.52 4.538-10.238 9.101-10.238zM87.843 50.66c-5.777 0-10.464 4.69-10.464 10.469 0 5.776 4.687 10.461 10.464 10.461 5.78 0 10.465-4.684 10.465-10.461 0-5.78-4.685-10.469-10.465-10.469zm0 3.276c3.97 0 7.19 3.221 7.19 7.193a7.19 7.19 0 01-14.378 0 7.194 7.194 0 017.188-7.193zm0 19.303c-6.56 0-12.378 7.329-12.378 13.514 0 5.027 1.203 10.01 3.136 10.976 1.873.937 5.843 1.797 9.461 1.811 4.903.02 9.545-.9 11.097-2.778.673-.815 1.07-2.267 1.277-4.477l.057-.685.046-.732.019-.384.03-.802c.005-.138.009-.278.012-.42l.017-.875.008-.924.001-.48c0-6.14-6.207-13.744-12.783-13.744zm0 3.276c4.603 0 9.508 6.008 9.508 10.468l-.001.393-.014 1.128-.017.708-.023.67-.029.633-.054.875-.064.782-.049.469-.053.424-.027.196-.058.356c-.1.556-.211.917-.328 1.058-.198.24-.683.478-1.367.693l-.435.127-.478.12-.517.113c-.358.073-.739.14-1.138.2l-.612.086-.635.075a16.23 16.23 0 01-.325.033l-.662.056a29.9 29.9 0 01-2.39.086l-.363-.004c-2.788-.06-5.768-.674-7.279-1.295l-.22-.096.026.039a2.477 2.477 0 01-.228-.41c-.21-.456-.423-1.105-.61-1.882-.413-1.71-.66-3.829-.66-5.863 0-4.52 4.539-10.238 9.102-10.238zM59.132 10.547a6.552 6.552 0 00-6.552 6.551v10.92a6.552 6.552 0 0013.104 0v-10.92a6.552 6.552 0 00-6.552-6.551zm0 3.275a3.276 3.276 0 013.276 3.276v10.92a3.276 3.276 0 11-6.552 0v-10.92a3.276 3.276 0 013.276-3.276zm31.248 6.743a6.006 6.006 0 00-8.204 2.198L76.17 33.165a6.006 6.006 0 1010.402 6.006l6.006-10.402a6.006 6.006 0 00-2.198-8.204zm-1.638 2.837a2.73 2.73 0 01.999 3.729l-6.006 10.402a2.73 2.73 0 01-4.728-2.73l6.006-10.402a2.73 2.73 0 013.729-1zm-61.003-3.383a6.006 6.006 0 00-2.199 8.204l6.006 10.402a6.006 6.006 0 0010.402-6.006l-6.005-10.402a6.006 6.006 0 00-8.204-2.198zm1.637 2.837a2.73 2.73 0 013.73 1l6.005 10.401a2.73 2.73 0 11-4.728 2.73l-6.006-10.402a2.73 2.73 0 011-3.73z" fill="#E60000"/></g></svg>