<svg width="120" height="120" xmlns="http://www.w3.org/2000/svg"><g fill="none" fill-rule="evenodd"><path d="M0 0h120v120H0z"/><path d="M33.425 24.948c4.309-1.651 10-2.04 12.044-1.31l.116.045.004.206-.035 1.522c-.023 1.306.042 2.292.28 3.259.318 1.29.929 2.36 1.916 3.142 1.474 1.168 3.824 1.843 6.873 2.225 1.963.246 3.942.337 5.727.337 2.176 0 4.103-.068 6.214-.3 3.332-.364 5.88-1.04 7.462-2.241 1.598-1.214 2.033-3.056 1.833-5.44l-.036-.341-.073-.57-.207-1.42.067-.027c2.458-1.05 6.309-1.13 11.32.752 1.259.473 2.886 1.385 4.717 2.609l.743.506c.376.26.76.534 1.15.817l.787.582c.265.198.532.4.801.608l.812.634c.272.215.546.434.82.657l.828.679.415.347.833.708.416.36.833.733.416.372.827.754c.473.435.933.868 1.38 1.298l.874.852.833.837c1.215 1.24 2.275 2.414 3.114 3.452.745.922 1.295 1.713 1.622 2.325l.079.154c.073.147.127.274.163.378l.026.085-.108.305-.153.385-.19.44-.222.493-.123.264-.269.559-.452.909-.332.646-.535 1.016-.379.7-.394.714-.612 1.085-.419.725-.638 1.076c-.071.119-.142.237-.214.354l-.552.895a47.21 47.21 0 01-.272.43l-.534.827c-.789 1.202-1.526 2.23-2.172 3.026l-.189.228c-.369.44-.696.784-.964 1.019l-.106.088-.163-.118-.206-.161-.45-.377-.755-.664-1.684-1.523-1.446-1.32-.966-.864c-.101-.09-.201-.176-.299-.262l-.569-.485-.531-.438c-.085-.07-.17-.136-.253-.201l-.483-.371c-.47-.35-.9-.637-1.31-.874-2.027-1.173-4.026-1.092-4.671 1.108l-.068.26-.102.453-.067.425-.036.4-.023.589-.003.566.012.83.081 2.367.624 12.849.086 1.733.129 2.824.124 3.158.078 2.432.046 1.812.042 2.485.009 1.498-.005 1.367-.027 1.519-.028.808-.035.73-.028.44-.049.596-.057.512-.042.294-.046.257c-.016.08-.033.153-.05.219l-.053.18c-.009.028-.019.053-.028.076l-1.018.303-.188.07c-.649.264-1.631.495-2.875.694l-.777.117c-.404.056-.83.109-1.276.16l-.92.098-.971.09-1.019.084-1.063.075-.547.036-1.124.065-1.159.057-1.192.05-1.221.044-1.247.037-1.27.029-1.939.03-1.31.012-1.985.004-1.331-.006-1.334-.013-1.996-.032-1.324-.03-1.314-.037-1.302-.044-1.284-.05-1.265-.057-1.242-.064-1.216-.071-.597-.038-1.169-.08c-.192-.014-.383-.03-.572-.043l-1.115-.091-1.076-.097-1.032-.104-.986-.11c-.32-.038-.632-.077-.935-.117l-.882-.123c-2.704-.4-4.552-.898-5.061-1.488-.273-.316-.5-.907-.681-1.755l-.081-.41-.038-.218-.071-.464-.064-.5-.058-.533-.052-.57-.045-.602-.038-.637-.032-.67-.026-.703-.02-.736-.012-.77-.008-1.211.007-1.282.013-.893.031-1.396.029-.968.077-2.024.074-1.592.136-2.503.235-3.725.608-9.072.109-1.923.06-1.312.029-.862.015-.762.002-.457-.005-.418-.01-.38-.018-.343a11.327 11.327 0 00-.024-.31c-.234-2.528-2.039-3.51-4.031-2.401l-.462.28-.254.17-.188.138-.276.226-.246.218-.297.275-1.34 1.297-1.268 1.242-.341.329-.369.347-.469.428c-1.973 1.76-3.191 2.31-3.702 1.939-4.575-3.324-11.087-12.53-11.734-17.381-.143-1.067.885-2.652 2.622-4.453l.449-.455c.154-.152.314-.307.477-.462l.503-.47.261-.236.54-.477.279-.241.573-.483.593-.486c.1-.082.201-.163.303-.244l.62-.488.636-.488.651-.487.663-.485.675-.481.684-.478.692-.472.699-.466.704-.458.706-.45.709-.441.709-.43.707-.418 1.054-.603.697-.385.689-.37.681-.352.67-.336.659-.317.645-.298c.425-.191.84-.37 1.243-.532l.313-.123zm-7.653.157l-.948.554-.962.577-.484.296-.969.605c-.485.306-.97.618-1.45.934l-.954.636-.937.642c-.464.323-.918.647-1.362.97l-.393.288-.764.573c-.25.19-.496.379-.736.567l-.706.562c-.116.093-.23.185-.342.278l-.661.553-.631.546c-3.79 3.354-5.79 6.377-5.432 9.064.781 5.857 7.82 15.806 13.069 19.619 2.204 1.6 4.461.767 7.378-1.735l.492-.432c.167-.15.335-.303.506-.462l.563-.534 2.413-2.354.391-.37.189-.172.004.339-.002.448-.009.499-.027.848-.041.973-.079 1.496-.808 12.238-.086 1.428-.077 1.366-.089 1.747-.077 1.71-.062 1.632-.032 1.043-.034 1.5-.018 1.424-.001.906.006.873.015.839.023.805.015.39.037.757.045.723.055.69.065.659.035.317.079.61.089.579.099.547c.329 1.683.814 2.896 1.484 3.67.722.838 2.306 1.523 4.625 2.07l.621.139c.212.046.43.09.654.134l.686.127.718.12.749.116.78.11.811.103.839.097.87.092.897.086.926.08.954.075 1.481.1 1.02.062 1.047.055 1.617.073 1.109.042 1.133.037 1.156.032 1.778.038 1.795.026 1.738.013 1.15.002 1.707-.007 1.125-.01 1.665-.026 1.631-.037 1.067-.031 1.566-.056 1.52-.066 1.47-.077 1.414-.087 1.354-.097.867-.07 1.243-.113 1.169-.123.736-.087.7-.091.662-.095.624-.1.582-.102.541-.107.497-.111.232-.056.429-.117a8.71 8.71 0 00.555-.18l.173-.067 1.039-.308.213-.07c.465-.16.656-.243.951-.545.135-.138.26-.302.375-.496l.113-.203.054-.108.103-.233.097-.253.09-.273c.03-.095.058-.193.085-.294l.079-.316.074-.338.067-.361.062-.383.083-.62.048-.441.043-.467.038-.491.033-.517.04-.824.02-.582.022-.923.011-.985V88.2l-.014-1.498-.022-1.202-.044-1.71-.077-2.311-.122-3.042-.183-3.932-.643-13.116-.114-2.925-.028-1.246-.001-.615.02-.612.003-.053.299.185c.285.184.598.409.947.68l.436.346.472.392.511.438.552.486.596.536 2.494 2.277 1.134 1.02.612.535.394.328.326.255.21.149.246.154.167.089.159.07.162.06.111.035.373.104c1.497.403 3.018-.72 4.935-3.27l.364-.495.186-.26.379-.544.39-.578.401-.611.412-.644.425-.676.438-.71.451-.74.451-.758.446-.764.438-.765.428-.763.617-1.13.392-.733.552-1.064.34-.677.315-.646.288-.61.258-.567c.081-.182.157-.357.226-.523l.191-.472c.116-.297.207-.557.269-.774.384-1.331-.525-3.274-2.435-5.69l-.41-.507a37.112 37.112 0 00-.667-.784l-.478-.54-.505-.551-.263-.281-.544-.57-.569-.582-.593-.594-.618-.604-.641-.616-1.004-.944-.346-.32c-.29-.267-.581-.532-.872-.795l-.877-.78a75.326 75.326 0 00-.439-.384l-.879-.755a81.49 81.49 0 00-.877-.736l-.874-.716-.434-.35-.865-.681a72.89 72.89 0 00-.856-.656l-.844-.63c-2.934-2.154-5.626-3.782-7.659-4.546-6.535-2.456-11.736-2.018-14.981-.091-.663.394-.891.97-.939 1.63-.017.23-.008.468.02.749l.027.229.239 1.613.081.624.023.225c.115 1.367-.076 2.178-.537 2.528-.962.73-3.054 1.286-5.822 1.589-1.965.215-3.789.279-5.854.279l-.838-.006-.833-.02c-.553-.018-1.1-.045-1.635-.081l-.795-.061c-2.876-.252-5.326-.792-6.447-1.68-.357-.282-.603-.713-.757-1.34-.137-.557-.191-1.202-.188-2.072l.035-1.556.003-.393-.006-.338c-.04-1.055-.225-1.752-.971-2.301-1.447-1.065-4.515-1.414-7.937-1.11l-.738.075c-2.476.284-5.086.898-7.369 1.82-1.578.639-3.751 1.748-6.102 3.1z" fill="#E60000"/></g></svg>